# xmcd CD database file
#
# Track frame offsets:
#	150
#	14468
#	30789
#	48618
#	65639
#	78654
#	94000
#	114748
#	127102
#	146777
#	168465
#	188035
#
# Disc length: 2698 seconds
#
# Revision: 0
# Processed by: cddbd v1.5.2PL0 Copyright (c) Steve Scherf et al.
# Submitted via: CDex 1.51
#
DISCID=a80a880c
DTITLE=The Wood Brothers - Ways Not to Lose
DYEAR=2005
DGENRE=Blues
TTITLE0=One More Day
TTITLE1=Ttried and Tempted
TTITLE2=Luckiest Man
TTITLE3=Glad
TTITLE4=Chocolate on My Tongue
TTITLE5=Atlas
TTITLE6=Time to Stand Still
TTITLE7=The Truth Is the Light
TTITLE8=Spirit
TTITLE9=Angel Band
TTITLE10=Where My Baby Might Be
TTITLE11=That's What Angels Can Do
EXTD=YEAR: 2005
EXTT0=
EXTT1=
EXTT2=
EXTT3=
EXTT4=
EXTT5=
EXTT6=
EXTT7=
EXTT8=
EXTT9=
EXTT10=
EXTT11=
PLAYORDER=
